<svg xmlns="http://www.w3.org/2000/svg" viewBox="0 0 796.28 219"><g id="Layer_2" data-name="Layer 2"><g id="Banner_Thin" data-name="Banner Thin"><path d="M141.42,24c1.38.95,2.72,2,4,3,.39.3.77.61,1.16.93Z"/><path d="M187,20.53a125.8,125.8,0,0,0-19.65-4.37,84.66,84.66,0,0,1,17.39,3.5C185.63,20,186.39,20.25,187,20.53Z"/><path d="M250.87,109.28c0,55.66-43.14,92.49-106.76,94.68l-1,0H87.2l37.1-36.28h19.81c35.85-2.92,58.83-24.7,58.83-58.44,0-22.63-15.43-43.88-35.75-52.42A67.66,67.66,0,0,0,146.61,28c-.39-.32-.77-.63-1.16-.93-1.31-1.05-2.65-2.06-4-3a83.23,83.23,0,0,0-15.59-8.52,295.91,295.91,0,0,1,33.53,0c2.69.18,5.38.4,8,.7A124.42,124.42,0,0,1,187,20.54h0C227.38,33.12,250.87,65.09,250.87,109.28Z"/><path d="M167.37,16.16c-2.63-.29-5.31-.52-8-.7a20.92,20.92,0,0,1,3.18.1Q165,15.82,167.37,16.16Z"/><path d="M141.42,24c1.38.95,2.72,2,4,3,.39.3.77.61,1.16.93Z"/><path d="M159.21,82.26c0,22-6.06,42-37.3,71.47l-51.34,50.2L8.15,204,84,129.14c19.77-19.07,23.28-30.72,23.28-41.71,0-17.79-12.12-28.14-35.71-28.14-13.67,0-25.86,3.8-35.67,11.5a21.81,21.81,0,0,1-25.52,1.36L10,71.93a22.35,22.35,0,0,1-.72-36.76c17.34-12.5,40.19-19.86,67-19.86,25.15,0,46.06,6.61,60.58,18.46h0A59.38,59.38,0,0,1,152.6,53.13,64,64,0,0,1,159.21,82.26Z"/><path d="M502.94,146c0,23.63-16.65,39.54-36.42,39.54-9.66,0-17.39-3-23.19-8.18v17.84A23.79,23.79,0,0,1,419.54,219h0V108.69h23.79v6c5.8-5.2,13.53-8.18,23.19-8.18C486.29,106.46,502.94,122.52,502.94,146Zm-23.34,0c0-11.45-7.58-19.33-18-19.33-9.66,0-18.28,7.88-18.28,19.33s8.62,19.32,18.28,19.32C472,165.33,479.6,157.6,479.6,146Z"/><path d="M589,183.32H565.2v-7.13c-5.65,5.94-18.55,9.36-27.92,9.36-17.39,0-29-12.34-29-31.07V108.69h23.64v40.74c0,8.77,5.2,14.71,12.78,14.71,9.37,0,20.49-6.39,20.49-20.81V108.69H589Z"/><path d="M658.09,180.05c-5.8,3.12-11.89,5.5-20.36,5.5-18.59,0-29.74-10.11-29.74-29.73V127.57H594.46V108.69H608v-25h0a23.79,23.79,0,0,1,23.79,23.78v1.19h34.56v18.88H631.78v25.87c0,7.73,3.72,10.85,10,10.85a24.33,24.33,0,0,0,10.85-3Z"/><path d="M727.12,108.25l-1,23.78h-4.31c-16.65,0-25.72,8.63-25.72,27.95v23.34H672.26V108.69h23.79V123c5.35-8.91,13.53-15.31,25.72-15.31A20.17,20.17,0,0,1,727.12,108.25Z"/><path d="M796.28,136.05v47.27H773.39v-5.5c-5.2,4.46-12.34,7.73-22.3,7.73-16.65,0-27.8-9.66-27.8-24.38,0-14.57,11.15-24.08,31.07-24.08h19V135.6A10.41,10.41,0,0,0,763,125.2c-7.26-.06-11.48,2.76-12.68,9.36l-20.7-2.46c1.51-15.57,14.6-25.64,32.44-25.64C783.05,106.46,796.28,117,796.28,136.05Zm-22.89,17.84v-1.64H757c-5.95,0-9.67,3.12-9.67,7.73,0,4.76,4.16,7.73,10.41,7.73C766,167.71,773.39,162.21,773.39,153.89Z"/><path d="M407.89,37.61c-17.83,0-30.92,9.07-34.19,23.49l22.45,4.61c1.19-6.54,5.36-9.37,12.49-9.37,6.24,0,10.56,4.17,10.56,10.41v1.49h-19c-19.91,0-31.06,9.51-31.06,24.08s11.15,24.38,27.79,24.38c8.36,0,14.73-2.3,19.64-5.68v-6.35h25.56V67.2C442.09,48.16,428.86,37.61,407.89,37.61ZM419.2,85c0,8.33-7.44,13.83-15.61,13.83-6.25,0-10.41-3-10.41-7.73,0-4.61,3.71-7.73,9.66-7.73H419.2Z"/><path d="M486.24,93.51c-3.42,1.19-6.54,2.08-8.62,2.08-4.31,0-7.14-2.68-7.14-6.54V0H446.7V90.83a27.66,27.66,0,0,0,3.86,14.66,40.23,40.23,0,0,1,16-3,38.07,38.07,0,0,1,23,7.66Z"/><path d="M563.24,39.69H538.12L520.28,85.78l-18-46.09H477.17l28.1,68v-3h29.67v3.47Z"/><path d="M577.07,4.31a13.42,13.42,0,0,0-13.68,13.53c0,7.58,5.65,13.23,13.68,13.23s13.82-5.65,13.82-13.23A13.55,13.55,0,0,0,577.07,4.31Zm-11.9,35.53v64.83H589V39.84Z"/><path d="M632.07,37.61c-17.84,0-30.92,9.07-34.19,23.49l22.44,4.61c1.2-6.54,5.36-9.37,12.49-9.37,6.25,0,10.56,4.17,10.56,10.41v1.49h-19c-19.92,0-31.07,9.51-31.07,24.08a24,24,0,0,0,3.2,12.35H605v-25h3a26.66,26.66,0,0,1,14.66,4.37A13.6,13.6,0,0,1,627,83.4h16.35V85c0,6.34-4.31,11-10,12.92a26.8,26.8,0,0,1,1.34,6.72h31.53V67.2C666.26,48.16,653,37.61,632.07,37.61Z"/><path d="M718.88,37.61C709.52,37.61,701.64,41,696,47V39.84H672.21v64.83H696V79.83C696,65.41,702.09,59,711.46,59,719,59,724.24,65,724.24,73.74v30a20.93,20.93,0,0,1,3.61.6l2.39.6-.42,9.55h2.11a34.42,34.42,0,0,1,16-10V68.68C747.88,50,736.28,37.61,718.88,37.61Z"/><rect x="311.49" y="25.5" width="7" height="168"/></g></g></svg>